<svg width="347" height="61" viewBox="0 0 347 61" fill="#fff" xmlns="http://www.w3.org/2000/svg">
<path fill-rule="evenodd" clip-rule="evenodd" d="M20 60H0L60 0L90 30L80 40L60 20L50 30L60 40L50 50L40 40L20 60ZM92.5 32.5L80 45L60 25L55 30L65 40L50 55L40 45L25 60H120L92.5 32.5ZM75 10L112.5 47.5L122.5 37.5L85 0L75 10ZM130 60L157.5 32.5L185 60H130ZM115 50L145 20L155 30L125 60L115 50Z"/>
<path d="M190 10.19L207 10.2213V15.7213H195.812V36.7838H205.438V42.2838H195.812V60.0025H190V10.19Z"/>
<path d="M206.725 49.6275C206.725 46.2525 207.913 43.5963 210.288 41.6588C212.683 39.7213 216.204 38.6379 220.85 38.4088V37.7525C220.85 35.7942 220.381 34.2629 219.444 33.1588C218.527 32.0546 217.267 31.5025 215.663 31.5025C214.829 31.5025 213.965 31.6588 213.069 31.9713C212.194 32.2629 211.319 32.6588 210.444 33.1588L208.319 28.1588C209.631 27.4921 211.006 27.0025 212.444 26.69C213.881 26.3775 215.183 26.2213 216.35 26.2213C217.85 26.2213 219.215 26.4817 220.444 27.0025C221.673 27.5233 222.725 28.2733 223.6 29.2525C224.475 30.2108 225.152 31.3879 225.631 32.7838C226.11 34.1796 226.35 35.7629 226.35 37.5338V60.5963L222.256 58.5963C221.465 59.2213 220.579 59.7108 219.6 60.065C218.642 60.4192 217.6 60.5963 216.475 60.5963C215.058 60.5963 213.746 60.315 212.538 59.7525C211.35 59.1692 210.319 58.3879 209.444 57.4088C208.59 56.4296 207.923 55.2733 207.444 53.94C206.965 52.6067 206.725 51.1692 206.725 49.6275ZM212.381 49.7213C212.381 50.4921 212.496 51.2108 212.725 51.8775C212.954 52.5233 213.277 53.0963 213.694 53.5963C214.11 54.0754 214.61 54.4504 215.194 54.7213C215.777 54.9921 216.423 55.1275 217.131 55.1275C217.86 55.1275 218.558 54.9921 219.225 54.7213C219.892 54.4504 220.433 54.1067 220.85 53.69V43.4088C219.517 43.3879 218.329 43.5233 217.288 43.815C216.246 44.0858 215.36 44.5025 214.631 45.065C213.902 45.6067 213.34 46.2733 212.944 47.065C212.569 47.8358 212.381 48.7213 212.381 49.7213Z"/>
<path d="M229.106 26.2213L233.825 29.5025C235.117 28.5025 236.502 27.7213 237.981 27.1588C239.46 26.5754 240.992 26.2838 242.575 26.2838V32.0963C240.908 32.0963 239.429 32.2733 238.137 32.6275C236.867 32.9817 235.762 33.6588 234.825 34.6588V60.0025H229.106V26.2213Z"/>
<path d="M243.238 10.2213H249.05V54.565H261.894V60.0025H243.238V10.2213Z"/>
<path d="M259.712 49.6275C259.712 46.2525 260.9 43.5963 263.275 41.6588C265.671 39.7213 269.192 38.6379 273.837 38.4088V37.7525C273.837 35.7942 273.369 34.2629 272.431 33.1588C271.515 32.0546 270.254 31.5025 268.65 31.5025C267.817 31.5025 266.952 31.6588 266.056 31.9713C265.181 32.2629 264.306 32.6588 263.431 33.1588L261.306 28.1588C262.619 27.4921 263.994 27.0025 265.431 26.69C266.869 26.3775 268.171 26.2213 269.337 26.2213C270.837 26.2213 272.202 26.4817 273.431 27.0025C274.66 27.5233 275.712 28.2733 276.587 29.2525C277.462 30.2108 278.14 31.3879 278.619 32.7838C279.098 34.1796 279.337 35.7629 279.337 37.5338V60.5963L275.244 58.5963C274.452 59.2213 273.567 59.7108 272.587 60.065C271.629 60.4192 270.587 60.5963 269.462 60.5963C268.046 60.5963 266.733 60.315 265.525 59.7525C264.337 59.1692 263.306 58.3879 262.431 57.4088C261.577 56.4296 260.91 55.2733 260.431 53.94C259.952 52.6067 259.712 51.1692 259.712 49.6275ZM265.369 49.7213C265.369 50.4921 265.483 51.2108 265.712 51.8775C265.942 52.5233 266.265 53.0963 266.681 53.5963C267.098 54.0754 267.598 54.4504 268.181 54.7213C268.765 54.9921 269.41 55.1275 270.119 55.1275C270.848 55.1275 271.546 54.9921 272.212 54.7213C272.879 54.4504 273.421 54.1067 273.837 53.69V43.4088C272.504 43.3879 271.317 43.5233 270.275 43.815C269.233 44.0858 268.348 44.5025 267.619 45.065C266.89 45.6067 266.327 46.2733 265.931 47.065C265.556 47.8358 265.369 48.7213 265.369 49.7213Z"/>
<path d="M282.094 26.2213L286.781 29.565C287.24 29.1067 287.76 28.6796 288.344 28.2838C288.927 27.8879 289.542 27.5442 290.188 27.2525C290.833 26.9608 291.49 26.7317 292.156 26.565C292.823 26.3983 293.49 26.315 294.156 26.315C297.49 26.315 300 27.3671 301.688 29.4713C303.375 31.5546 304.219 34.565 304.219 38.5025V60.0025H298.656V38.565C298.656 36.4192 298.219 34.7838 297.344 33.6588C296.49 32.5338 295.219 31.9713 293.531 31.9713C292.531 31.9713 291.51 32.2213 290.469 32.7213C289.448 33.2004 288.51 33.9608 287.656 35.0025V60.0025H282.094V26.2213Z"/>
<path d="M317.381 60.5963C315.777 60.5963 314.246 60.2629 312.788 59.5963C311.35 58.9296 310.09 57.8983 309.006 56.5025C307.923 55.1067 307.058 53.3254 306.413 51.1588C305.788 48.9921 305.475 46.4088 305.475 43.4088C305.475 40.4088 305.788 37.8254 306.413 35.6588C307.058 33.4921 307.923 31.7108 309.006 30.315C310.09 28.9192 311.35 27.8879 312.788 27.2213C314.246 26.5546 315.777 26.2213 317.381 26.2213C318.194 26.2213 318.975 26.3254 319.725 26.5338C320.475 26.7421 321.183 27.0442 321.85 27.44V10.2213H327.413V60.7213L323.631 58.0338C322.798 58.8671 321.85 59.5025 320.788 59.94C319.725 60.3775 318.59 60.5963 317.381 60.5963ZM317.756 55.3463C318.548 55.3463 319.288 55.2108 319.975 54.94C320.663 54.6692 321.288 54.2838 321.85 53.7838V33.065C320.683 32.0025 319.319 31.4713 317.756 31.4713C316.902 31.4713 316.079 31.6588 315.288 32.0338C314.496 32.4088 313.788 33.0546 313.163 33.9713C312.558 34.8671 312.069 36.0858 311.694 37.6275C311.319 39.1483 311.131 41.0754 311.131 43.4088C311.131 45.7421 311.319 47.6796 311.694 49.2213C312.069 50.7421 312.558 51.9608 313.163 52.8775C313.788 53.7733 314.496 54.4088 315.288 54.7838C316.079 55.1588 316.902 55.3463 317.756 55.3463Z"/>
<path d="M330.731 53.44C331.544 53.9817 332.44 54.4192 333.419 54.7525C334.398 55.065 335.377 55.2213 336.356 55.2213C337.606 55.2213 338.617 54.8879 339.388 54.2213C340.179 53.5546 340.575 52.6588 340.575 51.5338C340.575 50.9504 340.46 50.4192 340.231 49.94C340.002 49.44 339.7 48.9608 339.325 48.5025C338.95 48.0442 338.513 47.6067 338.013 47.19C337.533 46.7733 337.033 46.3567 336.513 45.94L334.388 44.2525C332.617 42.8775 331.304 41.4296 330.45 39.9088C329.596 38.3671 329.169 36.7108 329.169 34.94C329.169 33.7733 329.398 32.6692 329.856 31.6275C330.315 30.565 330.96 29.6379 331.794 28.8463C332.627 28.0338 333.617 27.3983 334.763 26.94C335.929 26.4608 337.21 26.2213 338.606 26.2213C339.815 26.2213 340.981 26.3567 342.106 26.6275C343.231 26.8775 344.388 27.3046 345.575 27.9088L343.263 33.0963C342.492 32.5338 341.7 32.1275 340.888 31.8775C340.096 31.6275 339.294 31.5025 338.481 31.5025C337.898 31.5025 337.377 31.5963 336.919 31.7838C336.46 31.9504 336.075 32.19 335.763 32.5025C335.45 32.7942 335.21 33.1379 335.044 33.5338C334.877 33.9088 334.794 34.315 334.794 34.7525C334.794 35.4608 335.023 36.1588 335.481 36.8463C335.94 37.5338 336.742 38.3463 337.888 39.2838L340.325 41.2838C341.408 42.1796 342.325 43.0442 343.075 43.8775C343.846 44.69 344.46 45.5025 344.919 46.315C345.398 47.1275 345.742 47.9608 345.95 48.815C346.179 49.6692 346.294 50.565 346.294 51.5025C346.294 52.7942 346.033 53.9921 345.513 55.0963C345.013 56.2004 344.315 57.1588 343.419 57.9713C342.523 58.7838 341.46 59.4192 340.231 59.8775C339.002 60.3358 337.669 60.565 336.231 60.565C334.669 60.565 333.263 60.3567 332.013 59.94C330.783 59.5233 329.638 58.9921 328.575 58.3463L330.731 53.44Z"/>
</svg>
