<?xml version="1.0" encoding="UTF-8" standalone="no"?>
<svg
   xmlns:dc="http://purl.org/dc/elements/1.1/"
   xmlns:cc="http://creativecommons.org/ns#"
   xmlns:rdf="http://www.w3.org/1999/02/22-rdf-syntax-ns#"
   xmlns:svg="http://www.w3.org/2000/svg"
   xmlns="http://www.w3.org/2000/svg"
   xmlns:sodipodi="http://sodipodi.sourceforge.net/DTD/sodipodi-0.dtd"
   xmlns:inkscape="http://www.inkscape.org/namespaces/inkscape"
   width="256"
   height="256"
   viewBox="0 0 256 256"
   fill="#ffffff"
   version="1.1"
   id="svg4"
   sodipodi:docname="logo-favicon.svg"
   inkscape:version="1.0.2-2 (e86c870879, 2021-01-15)">
  <metadata
     id="metadata10">
    <rdf:RDF>
      <cc:Work
         rdf:about="">
        <dc:format>image/svg+xml</dc:format>
        <dc:type
           rdf:resource="http://purl.org/dc/dcmitype/StillImage" />
        <dc:title></dc:title>
      </cc:Work>
    </rdf:RDF>
  </metadata>
  <defs
     id="defs8" />
  <sodipodi:namedview
     pagecolor="#ffffff"
     bordercolor="#666666"
     borderopacity="1"
     objecttolerance="10"
     gridtolerance="10"
     guidetolerance="10"
     inkscape:pageopacity="0"
     inkscape:pageshadow="2"
     inkscape:window-width="1920"
     inkscape:window-height="1017"
     id="namedview6"
     showgrid="false"
     inkscape:snap-bbox="false"
     inkscape:bbox-paths="false"
     inkscape:bbox-nodes="false"
     inkscape:snap-bbox-edge-midpoints="false"
     inkscape:snap-page="true"
     inkscape:zoom="2"
     inkscape:cx="260.06664"
     inkscape:cy="142.30359"
     inkscape:window-x="-8"
     inkscape:window-y="-8"
     inkscape:window-maximized="1"
     inkscape:current-layer="svg4" />
  <rect
     style="opacity:1;fill:#000002;fill-opacity:1;stroke:none;stroke-width:1;stroke-linejoin:round;stroke-miterlimit:4;stroke-dasharray:none"
     id="rect14"
     width="256"
     height="256"
     x="0"
     y="0"
     rx="32"
     ry="32" />
  <path
     fill-rule="evenodd"
     clip-rule="evenodd"
     d="M 55,158 H 35 l 60,-60 30,30 -10,10 -20,-20 -10,10 10,10 -10,10 -10,-10 z M 127.5,130.5 115,143 95,123 l -5,5 10,10 -15,15 -10,-10 -15,15 h 95 z M 110,108 l 37.5,37.5 10,-10 L 120,98 Z m 55,50 27.5,-27.5 27.5,27.5 z m -15,-10 30,-30 10,10 -30,30 z"
     id="path2"
     style="opacity:1;fill:#ffffff;fill-opacity:1" />
</svg>
